<?xml version="1.0" encoding="UTF-8"?>
<svg xmlns="http://www.w3.org/2000/svg" width="1700" height="1180"
     viewBox="0 0 1700 1180">
<defs>
    <marker id="arrow_satisfy"  viewBox="0 0 10 10" refX="9" refY="5" markerWidth="7" markerHeight="7" orient="auto"><path d="M 0 0 L 10 5 L 0 10 z" fill="#0070c0"/></marker>
    <marker id="arrow_triggers" viewBox="0 0 10 10" refX="9" refY="5" markerWidth="7" markerHeight="7" orient="auto"><path d="M 0 0 L 10 5 L 0 10 z" fill="#bf9000"/></marker>
    <marker id="arrow_frame"    viewBox="0 0 10 10" refX="9" refY="5" markerWidth="7" markerHeight="7" orient="auto"><path d="M 0 0 L 10 5 L 0 10 z" fill="#385723"/></marker>
    <marker id="wire_arrow"     viewBox="0 0 10 10" refX="9" refY="5" markerWidth="6" markerHeight="6" orient="auto"><path d="M 0 0 L 10 5 L 0 10 z" fill="#444"/></marker>
    <marker id="sm_arrow"       viewBox="0 0 10 10" refX="9" refY="5" markerWidth="6" markerHeight="6" orient="auto"><path d="M 0 0 L 10 5 L 0 10 z" fill="#ce716e"/></marker>
</defs>
<rect width="1700" height="1180" fill="white"/>

<rect x="30" y="60" width="800" height="590" fill="#fafafa" stroke="#dddddd" stroke-width="1" rx="3"/>
<text x="42" y="82" font-family="monospace" font-size="11" fill="#555555">ibd [part def] SafetyChainFocus</text>
<rect x="60" y="120" width="220" height="180" fill="#ffffff" stroke="#5b8aab" stroke-width="1.5" rx="6"/>
<rect x="60" y="120" width="220" height="44" fill="#d4e3f5" stroke="#5b8aab" stroke-width="1.5" rx="6"/>
<rect x="60" y="156" width="220" height="8" fill="#d4e3f5" stroke="none"/>
<line x1="60" y1="164" x2="280" y2="164" stroke="#5b8aab" stroke-width="1.5"/>
<text x="170.0" y="138" font-family="sans-serif" font-size="11" font-style="italic" fill="#555555" text-anchor="middle">«part»</text>
<text x="170.0" y="155" font-family="sans-serif" font-size="13" font-weight="bold" fill="#222222" text-anchor="middle">lidar : LidarDriver</text>
<text x="72" y="186" font-family="sans-serif" font-size="11" fill="#222222">nodeName = "lidar_driver"</text>
<text x="72" y="202" font-family="sans-serif" font-size="11" fill="#222222">frameId = "lidar_link"</text>
<text x="72" y="218" font-family="sans-serif" font-size="11" fill="#222222">qos = sensorDataQoS</text>
<rect x="274" y="204.0" width="12" height="12" fill="white" stroke="#5b8aab" stroke-width="1.2"/>
<text x="292" y="214.0" font-family="sans-serif" font-size="10" fill="#222222" text-anchor="start">sensorPub</text>
<rect x="480" y="120" width="220" height="180" fill="#ffffff" stroke="#5b8aab" stroke-width="1.5" rx="6"/>
<rect x="480" y="120" width="220" height="44" fill="#d4e3f5" stroke="#5b8aab" stroke-width="1.5" rx="6"/>
<rect x="480" y="156" width="220" height="8" fill="#d4e3f5" stroke="none"/>
<line x1="480" y1="164" x2="700" y2="164" stroke="#5b8aab" stroke-width="1.5"/>
<text x="590.0" y="138" font-family="sans-serif" font-size="11" font-style="italic" fill="#555555" text-anchor="middle">«part»</text>
<text x="590.0" y="155" font-family="sans-serif" font-size="13" font-weight="bold" fill="#222222" text-anchor="middle">obstacleDetector : ObstacleDetector</text>
<text x="492" y="186" font-family="sans-serif" font-size="11" fill="#222222">nodeName = "obstacle_detector"</text>
<text x="492" y="202" font-family="sans-serif" font-size="11" fill="#222222">satisfy ObstacleDetectionRangeReq</text>
<rect x="474" y="204.0" width="12" height="12" fill="white" stroke="#5b8aab" stroke-width="1.2"/>
<text x="468" y="214.0" font-family="sans-serif" font-size="10" fill="#222222" text-anchor="end">rawSub</text>
<rect x="694" y="204.0" width="12" height="12" fill="white" stroke="#5b8aab" stroke-width="1.2"/>
<text x="712" y="214.0" font-family="sans-serif" font-size="10" fill="#222222" text-anchor="start">processedPub</text>
<rect x="60" y="390" width="220" height="180" fill="#ffffff" stroke="#5b8aab" stroke-width="1.5" rx="6"/>
<rect x="60" y="390" width="220" height="44" fill="#d4e3f5" stroke="#5b8aab" stroke-width="1.5" rx="6"/>
<rect x="60" y="426" width="220" height="8" fill="#d4e3f5" stroke="none"/>
<line x1="60" y1="434" x2="280" y2="434" stroke="#5b8aab" stroke-width="1.5"/>
<text x="170.0" y="408" font-family="sans-serif" font-size="11" font-style="italic" fill="#555555" text-anchor="middle">«part»</text>
<text x="170.0" y="425" font-family="sans-serif" font-size="13" font-weight="bold" fill="#222222" text-anchor="middle">velocitySmoother : AGRVelocitySmoother</text>
<text x="72" y="456" font-family="sans-serif" font-size="11" fill="#222222">nodeName = "velocity_smoother"</text>
<text x="72" y="472" font-family="sans-serif" font-size="11" fill="#222222">qos = systemDefaultQoS</text>
<rect x="54" y="474.0" width="12" height="12" fill="white" stroke="#5b8aab" stroke-width="1.2"/>
<text x="48" y="484.0" font-family="sans-serif" font-size="10" fill="#222222" text-anchor="end">cmdVelIn</text>
<rect x="274" y="474.0" width="12" height="12" fill="white" stroke="#5b8aab" stroke-width="1.2"/>
<text x="292" y="484.0" font-family="sans-serif" font-size="10" fill="#222222" text-anchor="start">cmdVelOut</text>
<rect x="480" y="390" width="220" height="180" fill="#ffffff" stroke="#ce716e" stroke-width="1.5" rx="6"/>
<rect x="480" y="390" width="220" height="44" fill="#f3e3e2" stroke="#ce716e" stroke-width="1.5" rx="6"/>
<rect x="480" y="426" width="220" height="8" fill="#f3e3e2" stroke="none"/>
<line x1="480" y1="434" x2="700" y2="434" stroke="#ce716e" stroke-width="1.5"/>
<text x="590.0" y="408" font-family="sans-serif" font-size="11" font-style="italic" fill="#555555" text-anchor="middle">«part»</text>
<text x="590.0" y="425" font-family="sans-serif" font-size="13" font-weight="bold" fill="#222222" text-anchor="middle">collisionGuard : CollisionGuard</text>
<text x="492" y="456" font-family="sans-serif" font-size="11" fill="#222222">nodeName = "collision_guard"</text>
<text x="492" y="472" font-family="sans-serif" font-size="11" fill="#222222">namespace = "/safety"</text>
<text x="492" y="488" font-family="sans-serif" font-size="11" fill="#222222">satisfy EmergencyStopReq</text>
<text x="492" y="504" font-family="sans-serif" font-size="11" fill="#222222">satisfy CollisionAvoidanceReq</text>
<rect x="474" y="444.0" width="12" height="12" fill="white" stroke="#ce716e" stroke-width="1.2"/>
<text x="468" y="454.0" font-family="sans-serif" font-size="10" fill="#222222" text-anchor="end">cmdVelIn</text>
<rect x="474" y="504.0" width="12" height="12" fill="white" stroke="#ce716e" stroke-width="1.2"/>
<text x="468" y="514.0" font-family="sans-serif" font-size="10" fill="#222222" text-anchor="end">scanSub</text>
<rect x="694" y="474.0" width="12" height="12" fill="white" stroke="#ce716e" stroke-width="1.2"/>
<text x="712" y="484.0" font-family="sans-serif" font-size="10" fill="#222222" text-anchor="start">cmdVelOut</text>
<path d="M 280 210.0 L 480 210.0" fill="none" stroke="#444" stroke-width="1.2" marker-end="url(#wire_arrow)"/>
<text x="380.0" y="202.0" font-family="monospace" font-size="10" fill="#444" text-anchor="middle">/scan</text>
<path d="M 280 216.0 L 310 216.0 L 310 510.0 L 480 510.0" fill="none" stroke="#444" stroke-width="1.2" marker-end="url(#wire_arrow)"/>
<text x="315" y="345.0" font-family="monospace" font-size="10" fill="#444">/scan</text>
<path d="M 280 480.0 L 380.0 480.0 L 380.0 450.0 L 480 450.0" fill="none" stroke="#444" stroke-width="1.2" marker-end="url(#wire_arrow)"/>
<text x="380.0" y="457.0" font-family="monospace" font-size="10" fill="#444" text-anchor="middle">/cmd_vel_smooth</text>
<text x="42" y="638" font-family="sans-serif" font-size="10" font-style="italic" fill="#555555">Y-junction: collisionGuard fuses sensor + commanded-velocity inputs to satisfy safety reqs.</text>
<rect x="30" y="690" width="800" height="460" fill="#fafafa" stroke="#dddddd" stroke-width="1" rx="3"/>
<text x="42" y="712" font-family="monospace" font-size="11" fill="#555555">stm [state def] OperationalModes</text>
<rect x="45" y="728" width="770" height="390" fill="white" stroke="#ce716e" stroke-width="1.5" rx="4"/>
<rect x="45" y="728" width="770" height="36" fill="#f3e3e2" stroke="#ce716e" stroke-width="1.5" rx="4"/>
<rect x="45" y="756" width="770" height="8" fill="#f3e3e2" stroke="none"/>
<line x1="45" y1="764" x2="815" y2="764" stroke="#ce716e" stroke-width="1.5"/>
<text x="430.0" y="752" font-family="sans-serif" font-size="13" font-weight="bold" fill="#222222" text-anchor="middle">OperationalModes</text>
<rect x="80.0" y="793.0" width="110" height="50" fill="white" stroke="#ce716e" stroke-width="1.5" rx="10"/><text x="135" y="816" font-family="sans-serif" font-size="10" font-style="italic" fill="#555555" text-anchor="middle">«state»</text><text x="135" y="832" font-family="sans-serif" font-size="12" font-weight="bold" fill="#222222" text-anchor="middle">idle</text>
<rect x="80.0" y="903.0" width="110" height="50" fill="white" stroke="#ce716e" stroke-width="1.5" rx="10"/><text x="135" y="926" font-family="sans-serif" font-size="10" font-style="italic" fill="#555555" text-anchor="middle">«state»</text><text x="135" y="942" font-family="sans-serif" font-size="12" font-weight="bold" fill="#222222" text-anchor="middle">charging</text>
<rect x="250.0" y="793.0" width="110" height="50" fill="white" stroke="#ce716e" stroke-width="1.5" rx="10"/><text x="305" y="816" font-family="sans-serif" font-size="10" font-style="italic" fill="#555555" text-anchor="middle">«state»</text><text x="305" y="832" font-family="sans-serif" font-size="12" font-weight="bold" fill="#222222" text-anchor="middle">autonomous</text>
<rect x="250.0" y="903.0" width="110" height="50" fill="white" stroke="#ce716e" stroke-width="1.5" rx="10"/><text x="305" y="926" font-family="sans-serif" font-size="10" font-style="italic" fill="#555555" text-anchor="middle">«state»</text><text x="305" y="942" font-family="sans-serif" font-size="12" font-weight="bold" fill="#222222" text-anchor="middle">manual</text>
<rect x="420.0" y="848.0" width="110" height="50" fill="#fff5f4" stroke="#ce716e" stroke-width="1.5" rx="10"/><text x="475" y="871" font-family="sans-serif" font-size="10" font-style="italic" fill="#555555" text-anchor="middle">«state»</text><text x="475" y="887" font-family="sans-serif" font-size="12" font-weight="bold" fill="#222222" text-anchor="middle">emergency</text>
<circle cx="75" cy="818" r="6" fill="#ce716e"/>
<path d="M 81 818 L 80 818" fill="none" stroke="#ce716e" stroke-width="1.5" marker-end="url(#sm_arrow)"/>
<path d="M 190 818 L 250 818" fill="none" stroke="#ce716e" stroke-width="1.5" marker-end="url(#sm_arrow)"/><text x="220.0" y="812.0" font-family="sans-serif" font-size="10" fill="#222222" text-anchor="middle">startMission via commandPort</text>
<path d="M 305 843 L 305 903" fill="none" stroke="#ce716e" stroke-width="1.5" marker-end="url(#sm_arrow)"/><text x="355.0" y="873.0" font-family="sans-serif" font-size="10" fill="#222222" text-anchor="middle">takeControl</text>
<path d="M 360 818 L 420 858" fill="none" stroke="#ce716e" stroke-width="1.5" marker-end="url(#sm_arrow)"/>
<text x="400.0" y="815.5" font-family="sans-serif" font-size="10" font-weight="bold" fill="#ce716e" text-anchor="middle">triggerEmergency</text>
<text x="400.0" y="829.5" font-family="monospace" font-size="9" fill="#555555" text-anchor="middle">accept EmergencyTrigger via safetyPort</text>
<path d="M 135 843 L 135 903" fill="none" stroke="#ce716e" stroke-width="1.5" marker-end="url(#sm_arrow)"/><text x="85.0" y="873.0" font-family="sans-serif" font-size="10" fill="#222222" text-anchor="middle">[batteryLevel &lt; 0.2]</text>
<path d="M 420 888 L 190 828" fill="none" stroke="#ce716e" stroke-width="1.5" stroke-dasharray="4,2" marker-end="url(#sm_arrow)"/>
<rect x="809" y="867" width="12" height="12" fill="white" stroke="#bf9000" stroke-width="2"/>
<text x="827" y="878" font-family="sans-serif" font-size="11" font-weight="bold" fill="#bf9000">safetyPort</text>
<text x="42" y="1138" font-family="sans-serif" font-size="10" font-style="italic" fill="#555555">safetyPort is the architectural channel that admits EmergencyTrigger events.</text>
<rect x="870" y="60" width="800" height="480" fill="#fafafa" stroke="#dddddd" stroke-width="1" rx="3"/>
<text x="882" y="82" font-family="monospace" font-size="11" fill="#555555">req [package] SafetyRequirements</text>
<rect x="900" y="110" width="740" height="200" fill="#ffffff" stroke="#7a6aab" stroke-width="1.5" rx="6"/>
<rect x="900" y="110" width="740" height="44" fill="#e9e3f4" stroke="#7a6aab" stroke-width="1.5" rx="6"/>
<rect x="900" y="146" width="740" height="8" fill="#e9e3f4" stroke="none"/>
<line x1="900" y1="154" x2="1640" y2="154" stroke="#7a6aab" stroke-width="1.5"/>
<text x="1270.0" y="128" font-family="sans-serif" font-size="11" font-style="italic" fill="#555555" text-anchor="middle">«requirement def»</text>
<text x="1270.0" y="145" font-family="sans-serif" font-size="13" font-weight="bold" fill="#222222" text-anchor="middle">EmergencyStopReq</text>
<text x="912" y="176" font-family="sans-serif" font-style="italic" font-size="11" fill="#222222">The robot shall halt all motion within 0.5 s</text>
<text x="912" y="194" font-family="sans-serif" font-style="italic" font-size="11" fill="#222222">of receiving an emergency stop command.</text>
<text x="912" y="212" font-family="monospace" font-size="11" fill="#222222">subject vehicle : Vehicle</text>
<text x="912" y="230" font-family="monospace" font-size="11" fill="#222222">attribute maxResponseMs : Real = 500</text>
<text x="912" y="248" font-family="monospace" font-size="11" fill="#222222">require constraint {</text>
<text x="912" y="266" font-family="monospace" font-size="11" fill="#222222">vehicle.responseTimeMs &lt;= maxResponseMs</text>
<text x="912" y="284" font-family="monospace" font-size="11" fill="#222222">}</text>
<rect x="900" y="340" width="740" height="200" fill="#ffffff" stroke="#7a6aab" stroke-width="1.5" rx="6"/>
<rect x="900" y="340" width="740" height="44" fill="#e9e3f4" stroke="#7a6aab" stroke-width="1.5" rx="6"/>
<rect x="900" y="376" width="740" height="8" fill="#e9e3f4" stroke="none"/>
<line x1="900" y1="384" x2="1640" y2="384" stroke="#7a6aab" stroke-width="1.5"/>
<text x="1270.0" y="358" font-family="sans-serif" font-size="11" font-style="italic" fill="#555555" text-anchor="middle">«requirement def»</text>
<text x="1270.0" y="375" font-family="sans-serif" font-size="13" font-weight="bold" fill="#222222" text-anchor="middle">CollisionAvoidanceReq</text>
<text x="912" y="406" font-family="sans-serif" font-style="italic" font-size="11" fill="#222222">The robot shall maintain a minimum clearance</text>
<text x="912" y="424" font-family="sans-serif" font-style="italic" font-size="11" fill="#222222">of 0.3 m from all detected obstacles.</text>
<text x="912" y="442" font-family="monospace" font-size="11" fill="#222222">subject vehicle : Vehicle</text>
<text x="912" y="460" font-family="monospace" font-size="11" fill="#222222">attribute minClearanceM : Real = 0.3</text>
<text x="912" y="478" font-family="monospace" font-size="11" fill="#222222">require constraint {</text>
<text x="912" y="496" font-family="monospace" font-size="11" fill="#222222">vehicle.nearestObstacleM &gt;= minClearanceM</text>
<text x="912" y="514" font-family="monospace" font-size="11" fill="#222222">}</text>
<rect x="870" y="580" width="800" height="320" fill="#fafafa" stroke="#dddddd" stroke-width="1" rx="3"/>
<text x="882" y="602" font-family="monospace" font-size="11" fill="#555555">par [constraint def] EmergencyStopBudget</text>
<rect x="900" y="630" width="740" height="230" fill="#ffffff" stroke="#cea05a" stroke-width="1.5" rx="6"/>
<rect x="900" y="630" width="740" height="44" fill="#fff2cd" stroke="#cea05a" stroke-width="1.5" rx="6"/>
<rect x="900" y="666" width="740" height="8" fill="#fff2cd" stroke="none"/>
<line x1="900" y1="674" x2="1640" y2="674" stroke="#cea05a" stroke-width="1.5"/>
<text x="1270.0" y="648" font-family="sans-serif" font-size="11" font-style="italic" fill="#555555" text-anchor="middle">«constraint def»</text>
<text x="1270.0" y="665" font-family="sans-serif" font-size="13" font-weight="bold" fill="#222222" text-anchor="middle">EmergencyStopBudget</text>
<rect x="915" y="688" width="190" height="34" fill="#fff7e6" stroke="#cea05a" stroke-width="1.2" rx="4"/>
<text x="925" y="702" font-family="sans-serif" font-size="10" font-style="italic" fill="#555555">«attribute»</text>
<text x="925" y="716" font-family="monospace" font-size="11" fill="#222222">sensingLatencyMs : Real</text>
<rect x="915" y="728" width="190" height="34" fill="#fff7e6" stroke="#cea05a" stroke-width="1.2" rx="4"/>
<text x="925" y="742" font-family="sans-serif" font-size="10" font-style="italic" fill="#555555">«attribute»</text>
<text x="925" y="756" font-family="monospace" font-size="11" fill="#222222">decisionLatencyMs : Real</text>
<rect x="915" y="768" width="190" height="34" fill="#fff7e6" stroke="#cea05a" stroke-width="1.2" rx="4"/>
<text x="925" y="782" font-family="sans-serif" font-size="10" font-style="italic" fill="#555555">«attribute»</text>
<text x="925" y="796" font-family="monospace" font-size="11" fill="#222222">actuationLatencyMs : Real</text>
<rect x="1120" y="728" width="190" height="34" fill="#fff7e6" stroke="#cea05a" stroke-width="1.2" rx="4"/>
<text x="1130" y="742" font-family="sans-serif" font-size="10" font-style="italic" fill="#555555">«attribute»</text>
<text x="1130" y="756" font-family="monospace" font-size="11" fill="#222222">totalResponseMs : Real</text>
<rect x="915" y="815" width="710" height="36" fill="#f5f5f5" stroke="#cea05a" stroke-width="1.2" stroke-dasharray="4,2" rx="3"/>
<text x="925" y="829" font-family="sans-serif" font-size="10" font-style="italic" fill="#555555">constraint expression:</text>
<text x="925" y="845" font-family="monospace" font-size="11" fill="#222222">totalResponseMs == sensingLatencyMs + decisionLatencyMs + actuationLatencyMs</text>
<path d="M 1105 705 C 1115 705, 1115 745, 1120 745" fill="none" stroke="#cea05a" stroke-width="1.2"/>
<path d="M 1105 745 L 1120 745" fill="none" stroke="#cea05a" stroke-width="1.2"/>
<path d="M 1105 785 C 1115 785, 1115 745, 1120 745" fill="none" stroke="#cea05a" stroke-width="1.2"/>
<text x="882" y="888" font-family="sans-serif" font-size="10" font-style="italic" fill="#555555">Parametric decomposition: maxResponseMs in EmergencyStopReq frames totalResponseMs.</text>
<g font-family="sans-serif">
<text x="30" y="48" font-size="22" font-weight="bold" fill="#c00000">1. Structure</text>
<text x="30" y="678" font-size="22" font-weight="bold" fill="#c00000">2. Behavior</text>
<text x="870" y="48" font-size="22" font-weight="bold" fill="#c00000">3. Requirements</text>
<text x="870" y="568" font-size="22" font-weight="bold" fill="#c00000">4. Constraints</text>
</g>
<g font-family="sans-serif" font-size="13" font-weight="bold">
<path d="M 700 380 C 830.0 350, 830.0 150, 897 130" stroke="#0070c0" stroke-width="2.5" fill="none" marker-end="url(#arrow_satisfy)"/>
<path d="M 700 420.0 C 830.0 390.0, 830.0 380, 897 360" stroke="#0070c0" stroke-width="2.5" fill="none" marker-end="url(#arrow_satisfy)"/>
<text x="770.0" y="345" fill="#0070c0">«satisfy»</text>
<path d="M 490 510 L 490 657.5 L 855 657.5 L 855 805 L 827 805" stroke="#bf9000" stroke-width="2.5" fill="none" stroke-dasharray="6,4" marker-end="url(#arrow_triggers)"/>
<text x="450" y="649.5" fill="#bf9000">«triggers»</text>
<path d="M 1270 250 L 1270 430.0 L 1270 430.0 L 1270 607" stroke="#385723" stroke-width="2.5" fill="none" marker-end="url(#arrow_frame)"/>
<text x="1280" y="422.0" fill="#385723">«frame»</text>
</g>

    <g font-family="sans-serif" font-size="13">
        <text x="30" y="1150" font-weight="bold" fill="#222222">Cross-pillar bindings:</text>
        <line x1="200" y1="1145" x2="245" y2="1145" stroke="#0070c0" stroke-width="2.5" marker-end="url(#arrow_satisfy)"/>
        <text x="252" y="1150" fill="#0070c0">«satisfy» (part fulfills requirement)</text>
        <text x="600" y="1150" font-weight="bold" fill="#222222">|</text>
        <line x1="620" y1="1145" x2="665" y2="1145" stroke="#bf9000" stroke-width="2.5" stroke-dasharray="6,4" marker-end="url(#arrow_triggers)"/>
        <text x="672" y="1150" fill="#bf9000">«triggers» (event drives state transition)</text>
        <text x="1010" y="1150" font-weight="bold" fill="#222222">|</text>
        <line x1="1030" y1="1145" x2="1075" y2="1145" stroke="#385723" stroke-width="2.5" marker-end="url(#arrow_frame)"/>
        <text x="1082" y="1150" fill="#385723">«frame» (requirement frames constraint def)</text>
    </g>
    
</svg>
